<svg xmlns="http://www.w3.org/2000/svg" viewBox="0 0 64 64"><g id="Layer_67" data-name="Layer 67"><path d="M32,3.4h0A28.59,28.59,0,0,0,3.4,32h0A28.59,28.59,0,0,0,32,60.6h0A28.59,28.59,0,0,0,60.6,32h0A28.59,28.59,0,0,0,32,3.4Zm5.35,43.87v5.38H35.23l-1.29-4a.6.6,0,0,0-.69-.4,18,18,0,0,1-7.23,0,.6.6,0,0,0-.69.4l-1.29,4H21.92V47.27a.59.59,0,0,0-.32-.53,14,14,0,0,1-7.35-8.63.59.59,0,0,0-.57-.45H11.59l-1.17-5.34h3.26a.6.6,0,0,0,.58-.45,13.27,13.27,0,0,1,4.51-6.78.59.59,0,0,0,.2-.62l-1.54-5.85,5.19,3.82a.66.66,0,0,0,.58.07,18,18,0,0,1,11.87-.33A8.91,8.91,0,0,0,36,25.06a15.15,15.15,0,0,0-4.76-1.28A.6.6,0,1,0,31.11,25,13.43,13.43,0,0,1,38,27.66c.18.17.38.33.58.49a9.36,9.36,0,0,1,3.21,5.73.6.6,0,0,0,.6.52h.08a.61.61,0,0,0,.51-.68,9.79,9.79,0,0,0-1.56-4.1,9.22,9.22,0,0,0,2.69.41h.22a11.92,11.92,0,0,1,1.1,5c0,4.81-3,9.31-7.75,11.75A.63.63,0,0,0,37.35,47.27Zm6.76-18.44a7.85,7.85,0,0,1-4.79-1.63l-.51-.42a8,8,0,0,1-2.61-5.1c0-.26,0-.53,0-.8a8,8,0,1,1,8,8Z" id="id_101" style="fill: rgb(71, 144, 153);"></path><path d="M20.05,28.26A1.9,1.9,0,1,0,22,30.15,1.89,1.89,0,0,0,20.05,28.26Zm0,2.59a.7.7,0,0,1-.69-.7.7.7,0,0,1,1.39,0A.7.7,0,0,1,20.05,30.85Z" id="id_102" style="fill: rgb(71, 144, 153);"></path><path d="M44.76,20.28H43.47a1,1,0,0,1-1.07-1,1,1,0,0,1,.31-.72,1.08,1.08,0,0,1,.76-.3h2.45a.6.6,0,0,0,0-1.2H44.71V15.79a.6.6,0,0,0-.6-.6.6.6,0,0,0-.6.6V17h0a2.31,2.31,0,0,0-1.6.64,2.19,2.19,0,0,0-.67,1.58,2.24,2.24,0,0,0,2.27,2.21h1.29a1,1,0,0,1,1.07,1,1,1,0,0,1-.31.72,1.08,1.08,0,0,1-.76.3H42.31a.6.6,0,1,0,0,1.2h1.2V26a.6.6,0,0,0,.6.6.6.6,0,0,0,.6-.6V24.71h0a2.31,2.31,0,0,0,1.6-.64A2.19,2.19,0,0,0,47,22.49,2.24,2.24,0,0,0,44.76,20.28Z" id="id_103" style="fill: rgb(29, 32, 33);"></path></g></svg>