<svg xmlns="http://www.w3.org/2000/svg" xml:space="preserve" width="850px" height="850px" version="1.1" style="shape-rendering:geometricPrecision; text-rendering:geometricPrecision; image-rendering:optimizeQuality; fill-rule:evenodd; clip-rule:evenodd" viewBox="0 0 850 850" xmlns:xlink="http://www.w3.org/1999/xlink" xmlns:xodm="http://www.corel.com/coreldraw/odm/2003">
<defs>
<style type="text/css">
   
    .fil0 {fill:#AADDE3}
    .fil1 {fill:#52ABB3}
   
  </style>
</defs>
<g id="Layer_x0020_1">
<metadata id="CorelCorpID_0Corel-Layer"></metadata>
<circle class="fil0" cx="425" cy="425" r="425" id="id_101" style="fill: rgb(113, 138, 207);"></circle>
<g id="_354567016">
<g>
<g id="_354546616">
<path class="fil1" d="M343.42 549.15c-1.23,0 -2.47,-0.33 -3.57,-0.98 -2.12,-1.26 -3.43,-3.55 -3.43,-6.02l0 -234.3c0,-2.47 1.31,-4.76 3.43,-6.02 2.13,-1.26 4.77,-1.31 6.93,-0.12l213.9 117.15c2.24,1.23 3.64,3.58 3.64,6.14 0,2.56 -1.4,4.91 -3.64,6.14l-213.9 117.15c-1.04,0.57 -2.2,0.86 -3.36,0.86zm7 -229.49l0 210.68 192.32 -105.34 -192.32 -105.34z" id="id_102" style="fill: rgb(250, 242, 252);"></path>
</g>
<g id="_354554512">
<path class="fil1" d="M425 633.94c-115.21,0 -208.94,-93.73 -208.94,-208.94 0,-115.21 93.73,-208.94 208.94,-208.94 115.21,0 208.94,93.73 208.94,208.94 0,115.21 -93.73,208.94 -208.94,208.94zm0 -403.88c-107.49,0 -194.94,87.45 -194.94,194.94 0,107.49 87.45,194.94 194.94,194.94 107.49,0 194.94,-87.45 194.94,-194.94 0,-107.49 -87.45,-194.94 -194.94,-194.94z" id="id_103" style="fill: rgb(253, 245, 255);"></path>
</g>
<g id="_354558040">
<path class="fil1" d="M425 681c-68.38,0 -132.67,-26.63 -181.02,-74.98 -48.35,-48.35 -74.98,-112.64 -74.98,-181.02 0,-68.38 26.63,-132.67 74.98,-181.02 48.35,-48.35 112.64,-74.98 181.02,-74.98 68.38,0 132.67,26.63 181.02,74.98 48.35,48.35 74.98,112.64 74.98,181.02 0,68.38 -26.63,132.67 -74.98,181.02 -48.35,48.35 -112.64,74.98 -181.02,74.98zm0 -498c-133.44,0 -242,108.56 -242,242 0,133.44 108.56,242 242,242 133.44,0 242,-108.56 242,-242 0,-133.44 -108.56,-242 -242,-242z" id="id_104" style="fill: rgb(252, 237, 255);"></path>
</g>
</g>
</g>
</g>
</svg>