<svg id="Layer_x0020_1" xmlns="http://www.w3.org/2000/svg" width="900" height="900" viewBox="0 0 900 900">
<circle id="Ellipse_22" data-name="Ellipse 22" cx="450" cy="450" r="450" fill="#de8540"></circle>
<path id="Path_104" data-name="Path 104" d="M706,263.608a6,6,0,0,0-12,0V370.973c0,9.1-2.72,16.286-7.063,21.6a33.173,33.173,0,0,1-19.716,11.261l-.013-.013-15.322-.131c-12.95,267.326-7.494,265.359,5.06,6.22h.017a6,6,0,0,0-5.076-6.221,32.822,32.822,0,0,1-19.157-11.212c-4.273-5.3-6.938-12.453-6.938-21.5V263.608a6,6,0,0,0-12,0V370.973c0,11.987,3.691,21.666,9.609,29a44.017,44.017,0,0,0,21.357,14.238L634.7,621.763c-.027.6-.044.98-.044,1.1a23.422,23.422,0,0,0,7.13,16.689,25.321,25.321,0,0,0,16.5,7.245c.62.031,1.008.046,1.192.046.105,0,.5-.017,1.14-.044a25.319,25.319,0,0,0,16.541-7.244,24.054,24.054,0,0,0,6.135-10.03c1.6-5.213.806-11.024.555-16.365l-9.32-198.81a44.219,44.219,0,0,0,21.69-14.186c6.015-7.356,9.782-17.1,9.782-29.192V263.608Z" fill="#fffffe"></path>
<path id="Path_105" data-name="Path 105" d="M676.341,268.2a6,6,0,0,0-12,0V371.182a5.887,5.887,0,0,1-1.74,4.166c-.078.078-.152.155-.224.236a5.875,5.875,0,0,1-3.941,1.5h0a5.94,5.94,0,0,1-5.906-5.905V268.2a6,6,0,0,0-12,0V371.182a17.941,17.941,0,0,0,17.906,17.906h0a17.844,17.844,0,0,0,12.243-4.883q.211-.175.407-.372a17.858,17.858,0,0,0,5.255-12.651V268.2Z" fill="#fffffe"></path>
<path id="Path_106" data-name="Path 106" d="M264.81,405.687l4.279,210.63h.022c0,.151,0,.3-.007.449h.012v.185a25,25,0,0,1-7.48,17.634,25.89,25.89,0,0,1-17.7,7.521v.022c-.158,0-.314,0-.469-.008v.013h-.217l-.3-.015h-.014l-.086-.007-.061-.006h-.074v-.007l-.02,0v.032a6.03,6.03,0,0,1-.658-.046,26.049,26.049,0,0,1-16.9-7.5,24.661,24.661,0,0,1-7.433-17.551,6.086,6.086,0,0,1,.032-.626v-.052h0v0h-.028c0-.2.015-.392.038-.583l6.633-208.382c-8.751-5.81-16.186-15.557-21.485-27.866-5.6-13-8.906-28.992-8.906-46.229,0-21.523,5.183-41.135,13.559-55.437,8.932-15.252,21.592-24.686,35.855-24.686s26.923,9.435,35.856,24.686c8.376,14.3,13.559,33.914,13.559,55.437,0,16.4-3,31.682-8.114,44.328-4.88,12.063-11.76,21.832-19.906,28.078Z" fill="#fffffe"></path>
<path id="Path_107" data-name="Path 107" d="M430.391,408.917a6,6,0,0,0-6.657-9.985l-23.3,15.535a6,6,0,0,0,6.657,9.985Z" fill="#fffffe"></path>
<path id="Path_108" data-name="Path 108" d="M449.16,418.856a6,6,0,1,0-6.657-9.985L399.785,437.35a6,6,0,0,0,6.657,9.985Z" fill="#fffffe"></path>
<path id="Path_109" data-name="Path 109" d="M572.255,362.3a156.816,156.816,0,1,0,45.931,110.887A156.325,156.325,0,0,0,572.255,362.3Zm-110.887,2.125a108.762,108.762,0,1,1-76.906,31.856,108.426,108.426,0,0,1,76.906-31.856Z" fill="#fffffe" fill-rule="evenodd"></path>
</svg>