<svg version="1.1" id="Layer_1" xmlns="http://www.w3.org/2000/svg" xmlns:xlink="http://www.w3.org/1999/xlink" x="0px" y="0px" viewBox="0 0 900 900" style="enable-background:new 0 0 900 900;" xml:space="preserve">
<style type="text/css">
	.st0{fill-rule:evenodd;clip-rule:evenodd;fill:#C6E2E2;}
	.st1{fill:#250E1E;}
	.st2{fill-rule:evenodd;clip-rule:evenodd;fill:#FAD190;}
</style>
<g id="Layer_x0020_1">
<circle class="st0" cx="450" cy="451" r="450" id="id_106" style="fill: rgb(128, 100, 145);"></circle>
<path class="st1" d="M383.3,707H263.2c-4.4,0-8-3.6-8-8V435.6l-29.8-0.1l0,0c-4.4,0-8-3.6-8-8c0-2.4,1.1-4.6,2.8-6l224.2-224.2l0,0
		c3.1-3.1,8.2-3.1,11.3,0c0.1,0.1,0.3,0.3,0.4,0.4l224.2,223.8l0,0c3.1,3.1,3.1,8.2,0,11.3c-1.7,1.7-4,2.5-6.3,2.3l-29.2,0.3V699
		c0,4.4-3.6,8-8,8H516.7c-4.4,0-8-3.6-8-8c0-0.2,0-0.5,0-0.7l0-96h0c0-76.2-117.5-78.2-117.5,0h0l0,96.7l0,0
		C391.3,703.4,387.7,707,383.3,707L383.3,707L383.3,707z M271.2,691h104.1l0-88.7h0c0-99.5,149.5-97,149.5,0h0l0,88.7h104.1V427.6h0
		c0-4.4,3.5-8,7.9-8l0,0l18.8-0.2L450,214.3L244.5,419.6l17.9,0c0.2,0,0.5,0,0.7,0c4.4,0,8,3.6,8,8L271.2,691L271.2,691z" id="id_107" style="fill: rgb(185, 132, 140);"></path>
<path class="st1" d="M274.4,370.5c0,4.4,3.6,8,8,8c4.4,0,8-3.6,8-8V244.1c0-4.4-3.6-8-8-8h-17.8v-19h99.6v19h-15.5
		c-4.4,0-8,3.6-8,8v60.1c0,4.4,3.6,8,8,8c4.4,0,8-3.6,8-8v-52.1h15.5c4.4,0,8-3.6,8-8v-35c0-4.4-3.6-8-8-8H256.6c-4.4,0-8,3.6-8,8
		v35c0,4.4,3.6,8,8,8h17.8L274.4,370.5L274.4,370.5z" id="id_108" style="fill: rgb(185, 132, 140);"></path>
<path class="st2" d="M287.6,376.6l-43.1,43l17.9,0l0.7,0c4.4,0,8,3.6,8,8V691h104.1l0-88.7h0c0-99.5,149.5-97,149.5,0h0l0,88.7
		h104.1l0-263.4c0-4.4,3.5-8,7.9-8l0,0l18.8-0.2L450,214.3l-95.1,95.1c-0.3,0.3-0.6,0.6-0.9,0.9l-65.5,65.5
		C288.2,376,287.9,376.3,287.6,376.6L287.6,376.6z" id="id_109" style="fill: rgb(242, 235, 245);"></path>
<path class="st2" d="M290.4,244.1v107.2l50.4-50.4v-56.8c0-4.4,3.6-8,8-8h15.5v-19h-99.6v19h17.8
		C286.8,236.1,290.4,239.7,290.4,244.1L290.4,244.1z" id="id_110" style="fill: rgb(245, 242, 247);"></path>
</g>
</svg>