<svg version="1.1" id="Layer_1" xmlns="http://www.w3.org/2000/svg" xmlns:xlink="http://www.w3.org/1999/xlink" x="0px" y="0px" width="3872.984px" height="3872.984px" viewBox="-1816.99 -1114.99 3872.984 3872.984" enable-background="new -1816.99 -1114.99 3872.984 3872.984" xml:space="preserve">
<g id="Layer_x0020_1">
<circle fill="#778d45" cx="119.501" cy="821.502" r="1936.493" id="id_101"></circle>
<g id="_529942432">
<path fill="#e0e8d0" d="M1201.414,1628.506H-962.745c-45.925,0-83.653-37.725-83.653-83.653V98.146
			c0-46.254,37.07-83.982,83.653-83.982h2164.158c46.588,0,83.982,37.399,83.982,83.982v1446.708
			C1285.396,1591.441,1247.672,1628.506,1201.414,1628.506z" id="id_102"></path>
<path fill="#14170f" d="M-263.007,1465.142h-599.354c-18.039,0-32.148-14.105-32.148-31.824V833.64
			c0-17.719,14.109-31.824,32.148-31.824h599.354c17.714,0,31.819,14.105,31.819,31.824v599.678
			C-231.188,1450.378-245.623,1465.142-263.007,1465.142z" id="id_103"></path>
<path fill="#13170b" d="M1029.844,865.464H-39.275c-17.719,0-31.824-14.105-31.824-31.824s14.105-31.824,31.824-31.824h1069.119
			c17.719,0,31.824,14.105,31.824,31.824S1047.563,865.464,1029.844,865.464z" id="id_104"></path>
<path fill="#171c0e" d="M1029.844,1065.244H-39.275c-17.719,0-31.824-14.105-31.824-32.144c0-17.719,14.105-31.824,31.824-31.824
			h1069.119c17.719,0,31.824,14.105,31.824,31.824C1061.668,1051.138,1047.563,1065.244,1029.844,1065.244z" id="id_105"></path>
<path fill="#c4ccb3" d="M1029.844,1464.813H-39.275c-17.719,0-31.824-14.435-31.824-32.153v-199.451
			c0-17.718,14.105-31.823,31.824-31.823h1069.119c17.719,0,31.824,14.105,31.824,31.823v199.451
			C1061.668,1450.378,1047.563,1464.813,1029.844,1464.813z" id="id_106"></path>
<polygon fill="#cbd4ba" points="-830.537,1401.174 -294.832,1401.174 -294.832,865.464 -830.537,865.464 		" id="id_107"></polygon>
<path fill="#c7cfb6" d="M1029.844,1201.385H-39.275c-17.719,0-31.824,14.105-31.824,31.823v199.451
			c0,17.719,14.105,32.153,31.824,32.153h13.776v-186.004c0-17.719,14.105-31.824,31.819-31.824h1055.348v-13.776
			C1061.668,1215.491,1047.563,1201.385,1029.844,1201.385z" id="id_108"></path>
<polygon fill="#cbd4b9" points="-784.937,1401.174 -784.937,911.064 -294.832,911.064 -294.832,865.464 -830.537,865.464 
			-830.537,1401.174 		" id="id_109"></polygon>
<polygon fill="#333333" points="-1046.398,661.413 -1046.398,608.595 -1046.398,337.296 -1046.398,284.479 1285.396,284.479 
			1285.396,337.296 1285.396,608.595 1285.396,661.413 		" id="id_110"></polygon>
</g>
</g>
</svg>